<svg width="48" height="48" viewBox="0 0 48 48" fill="none" xmlns="http://www.w3.org/2000/svg" xmlns:xlink="http://www.w3.org/1999/xlink">
  <defs>
    <linearGradient id="ggg1" x1="19" y1="27.3125" x2="19" y2="38" gradientUnits="userSpaceOnUse" gradientTransform="translate(14.168433 -29.510941)">
      <stop stop-color="#95abff"/>
      <stop offset="1" stop-color="#363c4d"/>
    </linearGradient>
    <linearGradient id="ggg2" xlink:href="#ggg1" gradientUnits="userSpaceOnUse" gradientTransform="translate(14.168433 -29.510941)" x1="19" y1="27.3125" x2="19" y2="38"/>
  </defs>
  <g fill-rule="evenodd" clip-rule="evenodd">
    <path d="M9.290045 17.137415c0-.3191.25868-.5778.57778-.5778h3.92883c2.0794 0 3.7677 1.8572 3.7677 4.1445v3.552c0 .3191-.2587.5778-.5778.5778h-3.9642c-2.0601 0-3.73231-1.8396-3.73231-4.1056zm0 10.1129c0-.3191.25868-.5778.57778-.5778h3.92883c2.0794 0 3.7677 1.8571 3.7677 4.1444v3.5521c0 .3191-.2587.5778-.5778.5778h-3.9642c-2.0601 0-3.73231-1.8396-3.73231-4.1054z" fill="#e78087"/>
    <path d="M38.709955 7.024515c0-.3191-.2587-.57778-.5778-.57778h-3.9288c-2.0794 0-3.7677 1.85688-3.7677 4.14443v3.55205c0 .3191.2587.5778.5778.5778h3.9644c2.0599 0 3.7321-1.8398 3.7321-4.10562zm-18.3874 0c0-.3191.2587-.57778.5778-.57778h3.9288c2.0794 0 3.7677 1.85688 3.7677 4.14443v3.55205c0 .3191-.2587.5778-.5778.5778h-3.9642c-2.0601 0-3.7323-1.8398-3.7323-4.10562zm0 10.1128c0-.3191.2587-.5777.5778-.5777h3.9288c2.0794 0 3.7677 1.8571 3.7677 4.1444v3.5521c0 .3191-.2587.5777-.5778.5777h-3.9642c-2.0601 0-3.7323-1.8395-3.7323-4.1056zm18.3874 0c0-.3191-.2587-.5777-.5778-.5777h-3.9288c-2.0794 0-3.7677 1.8571-3.7677 4.1444v3.5521c0 .3191.2587.5777.5778.5777h3.9644c2.0599 0 3.7321-1.8395 3.7321-4.1056zm-18.3874 10.1129c0-.3191.2587-.5778.5778-.5778h3.9288c2.0794 0 3.7677 1.8572 3.7677 4.1445v3.552c0 .3191-.2587.5778-.5778.5778h-3.9642c-2.0601 0-3.7323-1.8396-3.7323-4.1054zm18.3874 0c0-.3191-.2587-.5778-.5778-.5778h-3.9288c-2.0794 0-3.7677 1.8572-3.7677 4.1445v3.552c0 .3191.2587.5778.5778.5778h3.9644c2.0599 0 3.7321-1.8396 3.7321-4.1054z" fill="#95abff"/>
  </g>
  <g transform="translate(-9.1684322 34.306084)">
    <rect x="18.918432" y="-2.1984446" width="28.5" height="10.6875" rx="5.34375" fill="#363c4d"/>
    <rect x="18.918432" y="-2.1984446" width="28.5" height="10.6875" rx="5.34375" fill="url(#ggg2)" fill-opacity=".1"/>
    <path d="M24.075082 5.8008585c-.05924 0-.08885 0-.11148-.0115-.0199-.0101-.03608-.0263-.04622-.0462-.01152-.0226-.01152-.0522-.01152-.1115v-5.1671c0-.0592 0-.0889.01152-.1115.01014-.0199.02632-.0361.04622-.0462.02263-.0115.05224-.0115.11148-.0115h1.45095c1.1483 0 1.8483.5663 1.8483 1.4943 0 .344-.1203.6509-.3504.8888-.0814.0841-.1221.1262-.1289.1538-.0074.0298-.0058.0447.0078.0722.0125.0256.0596.0569.1538.1196.4095.2727.6323.6793.6323 1.1566 0 1.0068-.7786 1.620199-2.0449 1.620199zm1.47455-4.5774h-.3577c-.0592 0-.0889 0-.1115.0115-.0199.0101-.0361.0263-.0462.0462-.0115.0226-.0115.0522-.0115.1115v.9042c0 .0593 0 .0889.0115.1115.0101.0199.0263.0361.0462.0462.0226.0115.0523.0115.1115.0115h.3577c.4247 0 .6764-.228.6764-.6292 0-.3854-.2517-.6134-.6764-.6134m.1573 2.1707h-.515c-.0592 0-.0889 0-.1115.0115-.0199.0102-.0361.0264-.0462.0463-.0115.0226-.0115.0522-.0115.1114v1.1402c0 .0593 0 .0889.0115.1115.0101.0199.0263.0361.0462.0462.0226.0116.0523.0116.1115.0116h.515c.5191 0 .8337-.2753.8337-.7394 0-.4719-.3146-.7393-.8337-.7393m3.2187 2.4067c-.0592 0-.0889 0-.1115-.0115-.0199-.0101-.0361-.0263-.0462-.0462-.0115-.0226-.0115-.0522-.0115-.1115v-5.1671c0-.0592 0-.0889.0115-.1115.0101-.0199.0263-.0361.0462-.0462.0226-.0115.0523-.0115.1115-.0115h2.8705c.0593 0 .0889 0 .1115.0115.0199.0101.0361.0263.0462.0462.0115.0226.0115.0523.0115.1115v.5896c0 .0593 0 .0889-.0115.1115-.0101.0199-.0263.0361-.0462.0462-.0226.0116-.0522.0116-.1115.0116h-1.7537c-.0592 0-.0888 0-.1114.0115-.0199.0101-.0361.0263-.0463.0462-.0115.0226-.0115.0522-.0115.1115v.9671c0 .0593 0 .0889.0115.1115.0102.0199.0264.0361.0463.0462.0226.0116.0522.0116.1114.0116h1.4391c.0592 0 .0889 0 .1115.0115.0199.0101.0361.0263.0462.0462.0115.0226.0115.0522.0115.1115v.5896c0 .0593 0 .0889-.0115.1115-.0101.0199-.0263.0361-.0462.0462-.0226.0115-.0523.0115-.1115.0115h-1.4391c-.0592 0-.0888 0-.1114.0116-.0199.0101-.0361.0263-.0463.0462-.0115.0226-.0115.0522-.0115.1115v1.0772c0 .0593 0 .0889.0115.1115.0102.0199.0264.0361.0463.0462.0226.0116.0522.0116.1114.0116h1.7537c.0593 0 .0889 0 .1115.0115.0199.0101.0361.0263.0462.0462.0115.0226.0115.0522.0115.1115v.5896c0 .0593 0 .0889-.0115.1115-.0101.0199-.0263.0361-.0462.0462-.0226.0115-.0522.0115-.1115.0115zm3.977-4.4909c-.0592 0-.0888 0-.1114-.0116-.0199-.0101-.0361-.0263-.0463-.0462-.0115-.0226-.0115-.0522-.0115-.1114v-.6762c0-.0592 0-.0889.0115-.1115.0102-.0199.0264-.0361.0463-.0462.0226-.0115.0522-.0115.1114-.0115h4.1762c.0592 0 .0888 0 .1114.0115.0199.0101.0361.0263.0463.0462.0115.0226.0115.0523.0115.1115v.6762c0 .0592 0 .0888-.0115.1114-.0102.0199-.0264.0361-.0463.0462-.0226.0116-.0522.0116-.1114.0116h-1.3605c-.0592 0-.0888 0-.1114.0115-.0199.0101-.0361.0263-.0463.0462-.0115.0226-.0115.0523-.0115.1115v4.1525c0 .0593 0 .0889-.0115.1115-.0102.0199-.0263.0361-.0462.0462-.0227.0115-.0523.0115-.1115.0115h-.7784c-.0592 0-.0889 0-.1115-.0115-.0199-.0101-.0361-.0263-.0462-.0462-.0115-.0226-.0115-.0522-.0115-.1115v-4.1525c0-.0592 0-.0889-.0116-.1115-.0101-.0199-.0263-.0361-.0462-.0462-.0226-.0115-.0522-.0115-.1114-.0115zm4.2706 4.4909c-.0823 0-.1235 0-.1499-.0172-.0231-.0152-.0393-.0387-.0453-.0657-.0068-.0308.0078-.0692.0369-.1462l1.9561-5.1671c.0149-.0394.0224-.0591.0353-.0737.0113-.0128.0256-.0227.0416-.0287.0182-.0069.0392-.0069.0814-.0069h1.2291c.0422 0 .0633 0 .0814.0069.016.006.0303.0159.0417.0287.0128.0146.0203.0343.0352.0737l1.9561 5.1671c.0291.077.0437.1154.0369.1462-.006.027-.0222.0505-.0453.0657-.0264.0172-.0676.0172-.1498.0172h-.8246c-.0426 0-.0638 0-.0821-.0069-.0161-.0062-.0305-.0162-.0418-.0292-.0129-.0147-.0202-.0347-.0349-.0746l-.4455-1.2099c-.0147-.04-.022-.0599-.0349-.0746-.0113-.013-.0257-.0231-.0418-.0292-.0183-.007-.0395-.007-.0821-.007h-1.9661c-.0426 0-.0638 0-.0821.007-.0161.0061-.0305.0162-.0418.0292-.0129.0147-.0202.0346-.0349.0746l-.4454 1.2099c-.0147.0399-.0221.0599-.0349.0746-.0114.013-.0258.023-.0419.0292-.0182.0069-.0395.0069-.082.0069zm1.8986-2.6103c-.0279.0764-.0419.1146-.0349.1452.0062.0267.0225.05.0455.0649.0263.0171.0669.0171.1483.0171h1.0263c.0814 0 .1221 0 .1483-.0171.023-.0149.0393-.0382.0455-.0649.007-.0306-.0069-.0688-.0348-.1452l-.5132-1.4058c-.049-.1343-.0735-.2014-.1093-.2205-.0311-.0164-.0682-.0164-.0993 0-.0358.0191-.0603.0862-.1093.2205z" fill="#95abff"/>
  </g>
</svg>
